<svg width="162" height="52" viewBox="0 0 162 52" fill="none" xmlns="http://www.w3.org/2000/svg">
<g clip-path="url(#clip0_1_3)">
<path d="M143.501 34.2294L135.779 37.9958L133.899 30.8128L148.766 14.1812L131.524 28.3664L124.29 26.1781L128.003 18.2668L154.665 8.39509L143.501 34.2294Z" fill="#161616"/>
</g>
<path d="M9.66434 42.9326C10.2665 42.9326 10.7683 42.6817 11.1697 42.1799C11.5912 41.6781 11.9324 41.0659 12.1933 40.3434C12.4743 39.6208 12.675 38.8681 12.7955 38.0853C12.9159 37.3026 12.9761 36.6201 12.9761 36.0381C12.9761 35.4961 12.8858 35.0445 12.7051 34.6832C12.5245 34.3019 12.1331 34.1112 11.531 34.1112H10.1762L8.27942 42.9326H9.66434ZM7.85792 44.8594L6.5031 51.1819H0L4.06444 32.0639H11.0191C12.1632 32.0639 13.2069 32.1242 14.1503 32.2446C15.0936 32.365 15.9065 32.6059 16.5889 32.9672C17.2714 33.3284 17.8033 33.8503 18.1846 34.5327C18.566 35.1951 18.7566 36.0882 18.7566 37.2122C18.7566 38.2559 18.586 39.2495 18.2448 40.1928C17.9237 41.1161 17.3918 41.929 16.6492 42.6315C15.9266 43.3139 14.9832 43.8558 13.8191 44.2573C12.655 44.6587 11.2399 44.8594 9.57402 44.8594H7.85792Z" fill="black"/>
<path d="M30.4264 31.7629C32.1525 31.7629 33.5475 31.9837 34.6112 32.4252C35.6951 32.8668 36.5481 33.5492 37.1703 34.4725C37.5718 35.0947 37.8829 35.7972 38.1037 36.58C38.3244 37.3628 38.4348 38.266 38.4348 39.2896C38.4348 40.1728 38.3545 41.0559 38.194 41.939C38.0334 42.8222 37.8026 43.6752 37.5015 44.4981C37.2205 45.301 36.8693 46.0637 36.4478 46.7863C36.0463 47.4887 35.5947 48.111 35.093 48.6529C34.1496 49.6765 33.0557 50.3991 31.8113 50.8206C30.587 51.222 29.0716 51.4227 27.2652 51.4227C25.5189 51.4227 24.114 51.2421 23.0502 50.8808C21.9864 50.5195 21.1434 49.9374 20.5212 49.1346C20.0796 48.5726 19.7284 47.8601 19.4674 46.997C19.2266 46.1339 19.1062 45.0501 19.1062 43.7454C19.1062 41.5175 19.4976 39.5305 20.2803 37.7843C21.0832 36.018 22.2172 34.623 23.6824 33.5994C24.5656 32.9772 25.5491 32.5155 26.6329 32.2145C27.7168 31.9134 28.9812 31.7629 30.4264 31.7629ZM27.0243 49.3152C27.4859 49.3152 27.9175 49.1145 28.3189 48.7131C28.7404 48.2916 29.1217 47.7396 29.463 47.0572C29.8242 46.3547 30.1454 45.5619 30.4264 44.6788C30.7275 43.7956 30.9783 42.8824 31.1791 41.939C31.3798 40.9957 31.5303 40.0624 31.6307 39.1391C31.7511 38.1957 31.8113 37.3427 31.8113 36.58C31.8113 35.5363 31.7009 34.8237 31.4801 34.4424C31.2794 34.041 30.9783 33.8403 30.5769 33.8403C30.1153 33.8403 29.6737 34.041 29.2522 34.4424C28.8307 34.8438 28.4293 35.3857 28.0479 36.0682C27.6866 36.7305 27.3555 37.5033 27.0544 38.3864C26.7734 39.2495 26.5225 40.1426 26.3017 41.0659C26.101 41.9892 25.9404 42.9025 25.82 43.8057C25.7197 44.7089 25.6695 45.5418 25.6695 46.3045C25.6695 47.4486 25.7899 48.2414 26.0308 48.683C26.2917 49.1045 26.6229 49.3152 27.0243 49.3152Z" fill="black"/>
<path d="M50.5249 37.6036C50.5851 37.3026 50.6152 36.8911 50.6152 36.3692C50.6152 36.0682 50.5951 35.7771 50.555 35.4961C50.5149 35.1951 50.4446 34.9341 50.3443 34.7134C50.2439 34.4725 50.0934 34.2919 49.8927 34.1714C49.6919 34.0309 49.431 33.9607 49.1099 33.9607C48.7486 33.9607 48.4174 34.041 48.1163 34.2015C47.8153 34.3621 47.5443 34.5729 47.3035 34.8338C47.0827 35.0746 46.902 35.3657 46.7615 35.7069C46.6411 36.028 46.5809 36.3692 46.5809 36.7305C46.5809 37.2524 46.7113 37.6538 46.9723 37.9348C47.2533 38.2158 47.6146 38.4466 48.0561 38.6273C48.4977 38.8079 48.9995 38.9584 49.5615 39.0789C50.1235 39.1993 50.7055 39.3398 51.3077 39.5004C51.8095 39.6409 52.3112 39.8215 52.813 40.0423C53.3148 40.2631 53.7564 40.5641 54.1377 40.9455C54.5392 41.3068 54.8603 41.7885 55.1012 42.3906C55.342 42.9727 55.4624 43.7053 55.4624 44.5884C55.4624 45.8529 55.2116 46.9167 54.7098 47.7798C54.208 48.6428 53.5155 49.3453 52.6324 49.8873C51.7492 50.4292 50.6955 50.8206 49.4712 51.0614C48.2669 51.3023 46.9522 51.4227 45.5271 51.4227C44.082 51.4227 42.8978 51.3324 41.9745 51.1518C41.0713 50.951 40.3588 50.7403 39.8369 50.5195C39.2147 50.2586 38.7531 49.9575 38.452 49.6163L39.4756 45.4917H44.7745C44.7544 45.6723 44.7343 45.9232 44.7143 46.2443C44.6942 46.5454 44.6841 46.7863 44.6841 46.9669C44.6841 47.2077 44.7143 47.4586 44.7745 47.7196C44.8347 47.9805 44.925 48.2213 45.0454 48.4421C45.1859 48.6629 45.3766 48.8436 45.6175 48.9841C45.8583 49.1246 46.1594 49.1948 46.5207 49.1948C46.9221 49.1948 47.2733 49.1045 47.5744 48.9238C47.8956 48.7432 48.1565 48.5224 48.3572 48.2615C48.578 47.9805 48.7385 47.6794 48.8389 47.3583C48.9593 47.0171 49.0195 46.6859 49.0195 46.3648C49.0195 45.9232 48.9092 45.5519 48.6884 45.2508C48.4877 44.9497 48.2067 44.6988 47.8454 44.4981C47.4841 44.2773 47.0626 44.0967 46.5809 43.9562C46.1192 43.7956 45.6375 43.6351 45.1358 43.4745C44.654 43.334 44.1422 43.1634 43.6003 42.9627C43.0784 42.762 42.5967 42.481 42.1552 42.1197C41.7136 41.7584 41.3423 41.3068 41.0412 40.7649C40.7602 40.2029 40.6197 39.4903 40.6197 38.6273C40.6197 37.3427 40.9408 36.2689 41.5831 35.4058C42.2455 34.5227 43.0684 33.8101 44.0519 33.2682C45.0555 32.7263 46.1494 32.3449 47.3336 32.1242C48.5178 31.8833 49.6418 31.7629 50.7055 31.7629C52.1105 31.7629 53.3148 31.9335 54.3184 32.2747C55.342 32.5958 56.1148 32.9772 56.6366 33.4188L55.5227 37.6036H50.5249Z" fill="black"/>
<path d="M74.3741 34.3521H69.5269L65.9441 51.1819H59.441L63.0238 34.3521H58.2367L58.7787 32.0639H74.8859L74.3741 34.3521Z" fill="black"/>
<path d="M89.4483 51.1819H82.9452L84.7516 42.6616H81.0484L79.242 51.1819H72.7389L76.8033 32.0639H83.3365L81.5602 40.3735H85.2333L87.0096 32.0639H93.5729L89.4483 51.1819Z" fill="black"/>
<path d="M100.829 44.3476C100.729 44.7892 100.649 45.1705 100.588 45.4917C100.528 45.8128 100.498 46.1139 100.498 46.3949C100.498 47.0974 100.739 47.6594 101.221 48.0808C101.722 48.5023 102.455 48.7131 103.418 48.7131C104.121 48.7131 104.693 48.5927 105.134 48.3518C105.596 48.111 105.967 47.7898 106.248 47.3884C106.549 46.987 106.78 46.5253 106.941 46.0035C107.122 45.4816 107.272 44.9297 107.392 44.3476L109.952 32.0639H112.691L110.072 44.4078C109.871 45.3712 109.58 46.2744 109.199 47.1174C108.818 47.9604 108.266 48.7031 107.543 49.3453C106.841 49.9876 105.927 50.4994 104.803 50.8808C103.679 51.2421 102.284 51.4227 100.618 51.4227C98.3102 51.4227 96.6042 51.0514 95.5002 50.3088C94.3963 49.5461 93.8444 48.3819 93.8444 46.8164C93.8444 46.1139 93.9347 45.2207 94.1153 44.1368C94.296 43.053 94.5268 41.8788 94.8078 40.6143L96.6443 32.0639H103.479L100.829 44.3476Z" fill="black"/>
<path d="M130.21 36.4295C130.21 37.0115 130.12 37.5334 129.939 37.995C129.778 38.4567 129.548 38.8681 129.247 39.2294C128.946 39.5907 128.594 39.9118 128.193 40.1928C127.791 40.4738 127.35 40.7347 126.868 40.9756C127.089 41.0559 127.35 41.1864 127.651 41.367C127.952 41.5276 128.243 41.7584 128.524 42.0595C128.805 42.3605 129.036 42.7519 129.217 43.2336C129.417 43.6953 129.518 44.2673 129.518 44.9497C129.518 45.8529 129.327 46.6859 128.946 47.4486C128.564 48.2113 127.992 48.8737 127.229 49.4357C126.487 49.9776 125.564 50.4091 124.46 50.7303C123.376 51.0313 122.121 51.1819 120.696 51.1819H111.754L115.819 32.0639H123.737C124.52 32.0639 125.293 32.1242 126.055 32.2446C126.838 32.3449 127.531 32.5557 128.133 32.8768C128.755 33.198 129.257 33.6496 129.638 34.2316C130.019 34.7936 130.21 35.5262 130.21 36.4295ZM122.021 40.0724C122.463 40.0724 122.834 39.9419 123.135 39.681C123.456 39.4201 123.717 39.0989 123.918 38.7176C124.118 38.3162 124.269 37.8947 124.369 37.4531C124.47 36.9914 124.52 36.58 124.52 36.2187C124.52 35.6366 124.379 35.1449 124.098 34.7435C123.837 34.322 123.416 34.1112 122.834 34.1112H121.931L120.636 40.0724H122.021ZM119.853 49.2851C120.455 49.2851 120.957 49.1145 121.359 48.7733C121.76 48.4321 122.091 48.0106 122.352 47.5088C122.613 47.007 122.794 46.4852 122.894 45.9433C123.014 45.3813 123.075 44.8895 123.075 44.468C123.075 43.7655 122.924 43.2136 122.623 42.8121C122.342 42.3906 121.88 42.1799 121.238 42.1799H120.124L118.649 49.2851H119.853Z" fill="black"/>
<defs>
<clipPath id="clip0_1_3">
<rect width="36.4164" height="22.1665" fill="white" transform="translate(120.428 25.8421) scale(1.00357) rotate(-45)"/>
</clipPath>
</defs>
</svg>
