<svg width="19" height="16" viewBox="0 0 19 16" fill="none" xmlns="http://www.w3.org/2000/svg">
<path d="M1.86081 7.70368L8.24943 14.0908C8.39407 14.2354 8.47532 14.4316 8.47532 14.6361C8.47532 14.8407 8.39407 15.0368 8.24943 15.1815C8.10479 15.3261 7.90863 15.4074 7.70408 15.4074C7.49953 15.4074 7.30336 15.3261 7.15873 15.1815L0.226296 8.24903C0.154563 8.17748 0.0976514 8.09247 0.0588198 7.99889C0.0199883 7.90531 0 7.80499 0 7.70368C0 7.60236 0.0199883 7.50204 0.0588198 7.40846C0.0976514 7.31488 0.154563 7.22988 0.226296 7.15832L7.15873 0.225892C7.30336 0.0812556 7.49953 0 7.70408 0C7.90863 0 8.10479 0.0812556 8.24943 0.225892C8.39407 0.370528 8.47532 0.566697 8.47532 0.771243C8.47532 0.97579 8.39407 1.17196 8.24943 1.31659L1.86081 7.70368Z" fill="black"/>
<path d="M2.82432 6.93344H18.2297C18.434 6.93344 18.6299 7.01459 18.7744 7.15904C18.9188 7.3035 19 7.49942 19 7.70371C19 7.90799 18.9188 8.10392 18.7744 8.24837C18.6299 8.39282 18.434 8.47398 18.2297 8.47398H2.82432C2.62004 8.47398 2.42411 8.39282 2.27966 8.24837C2.13521 8.10392 2.05405 7.90799 2.05405 7.70371C2.05405 7.49942 2.13521 7.3035 2.27966 7.15904C2.42411 7.01459 2.62004 6.93344 2.82432 6.93344Z" fill="black"/>
</svg>
