<svg width="64" height="32" viewBox="0 0 64 32" fill="none" xmlns="http://www.w3.org/2000/svg">
<rect width="64" height="32" rx="16" fill="#F2F2F2"/>
<path d="M29.9978 23.3275V18.3275H33.9978V23.3275C33.9978 23.8775 34.4478 24.3275 34.9978 24.3275H37.9978C38.5478 24.3275 38.9978 23.8775 38.9978 23.3275V16.3275H40.6978C41.1578 16.3275 41.3778 15.7575 41.0278 15.4575L32.6678 7.9275C32.2878 7.5875 31.7078 7.5875 31.3278 7.9275L22.9678 15.4575C22.6278 15.7575 22.8378 16.3275 23.2978 16.3275H24.9978V23.3275C24.9978 23.8775 25.4478 24.3275 25.9978 24.3275H28.9978C29.5478 24.3275 29.9978 23.8775 29.9978 23.3275Z" fill="black"/>
</svg>
