<svg width="319" height="7" viewBox="0 0 319 7" fill="none" xmlns="http://www.w3.org/2000/svg">
<path d="M2.88883 0L2.81733e-05 5.00355L5.77763 5.00355L2.88883 0ZM2.38847 6.00426L2.38847 6.50462L3.38919 6.50462L3.38919 6.00426L2.38847 6.00426ZM2.38848 4.5032L2.38847 6.00426L3.38919 6.00426L3.38919 4.5032L2.38848 4.5032Z" fill="black"/>
<path d="M35.9123 0L33.0235 5.00355L38.8011 5.00355L35.9123 0ZM35.4119 6.00426L35.4119 6.50462L36.4126 6.50462L36.4126 6.00426L35.4119 6.00426ZM35.4119 4.5032L35.4119 6.00426L36.4126 6.00426L36.4126 4.5032L35.4119 4.5032Z" fill="black"/>
<path d="M70.9371 0L68.0483 5.00355L73.8259 5.00355L70.9371 0ZM70.4368 6.00426L70.4368 6.50462L71.4375 6.50462L71.4375 6.00426L70.4368 6.00426ZM70.4368 4.5032L70.4368 6.00426L71.4375 6.00426L71.4375 4.5032L70.4368 4.5032Z" fill="black"/>
<path d="M105.962 0L103.073 5.00355L108.851 5.00355L105.962 0ZM105.462 6.00426L105.462 6.50462L106.462 6.50462L106.462 6.00426L105.462 6.00426ZM105.462 4.5032L105.462 6.00426L106.462 6.00426L106.462 4.5032L105.462 4.5032Z" fill="black"/>
<path d="M140.987 0L138.098 5.00355L143.876 5.00355L140.987 0ZM140.487 6.00426L140.487 6.50462L141.487 6.50462L141.487 6.00426L140.487 6.00426ZM140.487 4.5032L140.487 6.00426L141.487 6.00426L141.487 4.5032L140.487 4.5032Z" fill="black"/>
<path d="M176.012 0L173.123 5.00355L178.901 5.00355L176.012 0ZM175.511 6.00426L175.511 6.50462L176.512 6.50462L176.512 6.00426L175.511 6.00426ZM175.511 4.5032L175.511 6.00426L176.512 6.00426L176.512 4.5032L175.511 4.5032Z" fill="black"/>
<path d="M211.037 0L208.148 5.00355L213.925 5.00355L211.037 0ZM210.536 6.00426L210.536 6.50462L211.537 6.50462L211.537 6.00426L210.536 6.00426ZM210.536 4.5032L210.536 6.00426L211.537 6.00426L211.537 4.5032L210.536 4.5032Z" fill="black"/>
<path d="M246.061 0L243.173 5.00355L248.95 5.00355L246.061 0ZM245.561 6.00426L245.561 6.50462L246.562 6.50462L246.562 6.00426L245.561 6.00426ZM245.561 4.5032L245.561 6.00426L246.562 6.00426L246.562 4.5032L245.561 4.5032Z" fill="black"/>
<path d="M281.086 0L278.198 5.00355L283.975 5.00355L281.086 0ZM280.586 6.00426L280.586 6.50462L281.587 6.50462L281.587 6.00426L280.586 6.00426ZM280.586 4.5032L280.586 6.00426L281.587 6.00426L281.587 4.5032L280.586 4.5032Z" fill="black"/>
<path d="M316.111 0L313.222 5.00355L319 5.00355L316.111 0ZM315.611 6.00426L315.611 6.50462L316.612 6.50462L316.612 6.00426L315.611 6.00426ZM315.611 4.5032L315.611 6.00426L316.612 6.00426L316.612 4.5032L315.611 4.5032Z" fill="black"/>
</svg>
