<svg width="23" height="15" viewBox="0 0 23 15" fill="none" xmlns="http://www.w3.org/2000/svg">
<path d="M16.2 0C14.349 0 12.902 1.394 11.592 3.165C9.792 0.873 8.287 0 6.486 0C2.814 0 0 4.78 0 9.838C0 13.003 1.531 15 4.096 15C5.942 15 7.27 14.13 9.631 10.003C9.631 10.003 10.615 8.266 11.291 7.069C11.529 7.452 11.778 7.864 12.041 8.307L13.148 10.169C15.304 13.777 16.506 15 18.682 15C21.182 15 22.572 12.976 22.572 9.745C22.572 4.448 19.695 0 16.2 0ZM7.83 8.886C5.917 11.886 5.255 12.559 4.19 12.559C3.093 12.559 2.441 11.596 2.441 9.879C2.441 6.207 4.272 2.452 6.455 2.452C7.637 2.452 8.625 3.134 10.138 5.3C8.701 7.504 7.83 8.886 7.83 8.886ZM15.055 8.509L13.73 6.3C13.3974 5.75678 13.0533 5.22066 12.698 4.692C13.891 2.851 14.874 1.933 16.045 1.933C18.475 1.933 20.42 5.513 20.42 9.909C20.42 11.585 19.871 12.558 18.734 12.558C17.644 12.558 17.124 11.838 15.054 8.508" fill="black"/>
</svg>
