<svg width="16" height="16" viewBox="0 0 16 16" fill="none" xmlns="http://www.w3.org/2000/svg">
<path d="M14.3484 8.42969C14.6033 8.91355 14.7604 9.44291 14.8106 9.9875C14.8608 10.5321 14.8032 11.0812 14.6411 11.6035C14.4789 12.1259 14.2155 12.6111 13.8657 13.0316C13.516 13.452 13.0868 13.7994 12.6027 14.0539L11.2658 14.7583L10.9371 14.9312C10.635 15.0902 10.3005 15.1776 9.95935 15.1867C9.61817 15.1958 9.27947 15.1264 8.96937 14.9839L3.74822 12.7533L4.23987 11.2946L7.34497 11.8944L5.7369 8.83881L3.14806 3.91972L4.40922 3.25622L6.99809 8.17675L7.62103 7.84909L6.47975 5.67894L7.74022 5.01581L8.88147 7.18597L9.50443 6.85831L8.62318 5.18337L9.88437 4.51988L10.7656 6.19481L11.3889 5.86431L10.7841 4.71163L12.0449 4.04994L12.6497 5.20259L14.3481 8.43075L14.3484 8.42969ZM2.28962 4.58356C2.02763 4.32134 1.84919 3.98738 1.77684 3.62383C1.70448 3.26029 1.74145 2.88346 1.88308 2.5409C2.0247 2.19835 2.26464 1.90543 2.5726 1.69912C2.88055 1.49282 3.24273 1.38237 3.6134 1.38172C3.91379 1.38206 4.20971 1.45444 4.47633 1.59279C4.74295 1.73115 4.9725 1.93144 5.1457 2.17686C5.31891 2.42228 5.43072 2.70566 5.47176 3.00323C5.51279 3.3008 5.48185 3.60386 5.38153 3.887L5.7124 4.51241C5.93373 4.14138 6.05285 3.71836 6.05767 3.28636C6.06249 2.85436 5.95284 2.42878 5.73985 2.05291C5.52686 1.67703 5.21814 1.36426 4.84507 1.14638C4.472 0.928513 4.0479 0.813314 3.61587 0.8125C2.98279 0.812589 2.37443 1.05826 1.91881 1.49781C1.46319 1.93735 1.19584 2.53651 1.17302 3.16918C1.15021 3.80185 1.3737 4.4187 1.79648 4.88992C2.21926 5.36115 2.80835 5.65 3.43978 5.69569L3.10712 5.06313C2.79788 4.97632 2.51629 4.81114 2.28962 4.58356Z" fill="#7D7F81"/>
</svg>
